<?xml version="1.0" standalone="no"?>
<!DOCTYPE svg PUBLIC "-//W3C//DTD SVG 20010904//EN"
 "http://www.w3.org/TR/2001/REC-SVG-20010904/DTD/svg10.dtd">
<svg version="1.0" xmlns="http://www.w3.org/2000/svg"
 width="1284.000000pt" height="1284.000000pt" viewBox="0 0 1284.000000 1284.000000"
 preserveAspectRatio="xMidYMid meet">
<metadata>
Created by potrace 1.14, written by Peter Selinger 2001-2017
</metadata>
<g transform="translate(0.000000,1284.000000) scale(0.100000,-0.100000)"
fill="#000000" stroke="none">
<path d="M7254 12775 c-27 -31 -57 -71 -66 -88 -27 -50 -125 -458 -143 -592
-2 -22 -7 -51 -9 -65 -3 -14 -7 -45 -10 -70 -3 -25 -8 -65 -11 -90 -3 -25 -7
-67 -10 -95 -2 -27 -7 -79 -10 -115 -37 -420 -41 -905 -10 -1285 8 -111 15
-194 20 -270 3 -44 8 -105 10 -135 3 -30 2 -50 -2 -44 -4 5 -17 17 -29 25 -11
8 -41 31 -65 51 -24 20 -89 73 -144 118 -282 230 -394 330 -560 495 -159 158
-238 248 -338 382 -172 233 -285 450 -368 708 -18 55 -36 104 -40 109 -5 5
-20 4 -38 -4 -26 -10 -32 -20 -41 -69 -6 -31 -20 -85 -30 -121 -17 -58 -75
-294 -86 -345 -2 -11 -8 -42 -14 -70 -17 -83 -22 -112 -35 -200 -3 -22 -19
-123 -36 -225 -28 -175 -39 -250 -55 -365 -3 -27 -8 -59 -10 -70 -2 -11 -7
-48 -9 -81 -3 -34 -8 -72 -10 -85 -19 -92 -27 -563 -12 -709 31 -328 128 -656
277 -945 71 -137 69 -133 161 -274 170 -260 314 -417 552 -600 81 -63 145
-116 143 -119 -5 -5 -51 -4 -445 4 l-253 5 27 -48 c61 -106 144 -212 245 -313
129 -132 162 -158 374 -303 224 -153 309 -237 378 -372 45 -88 57 -130 74
-275 4 -30 19 -90 35 -133 16 -43 27 -83 24 -88 -20 -31 58 -101 460 -413 90
-70 185 -147 185 -149 0 -2 -55 16 -123 38 -108 37 -335 97 -407 109 -14 2
-91 22 -173 45 -81 22 -173 45 -205 51 -31 5 -68 12 -81 15 -13 2 -49 7 -80
10 -31 4 -67 9 -81 11 -14 3 -106 4 -205 4 -217 -1 -145 -2 -695 4 -413 4
-705 12 -785 21 -136 14 -297 38 -373 56 -26 6 -54 12 -62 14 -184 39 -446
148 -592 246 -101 68 -235 210 -320 339 -41 63 -81 126 -88 140 -16 30 -80 89
-97 90 -21 0 -69 -71 -132 -194 -99 -193 -159 -266 -306 -367 -56 -38 -134
-78 -216 -109 -57 -21 -144 -82 -163 -113 -26 -43 109 -110 435 -216 52 -17
104 -33 115 -36 10 -2 75 -19 144 -38 69 -19 168 -44 220 -57 221 -51 258 -60
325 -74 39 -9 108 -25 155 -35 47 -11 99 -22 115 -25 35 -7 61 -12 95 -20 14
-3 36 -8 50 -10 14 -2 59 -11 100 -19 41 -9 91 -18 110 -21 19 -3 46 -8 60
-11 14 -3 41 -8 60 -11 42 -7 50 -13 30 -25 -8 -5 -64 -39 -124 -75 -503 -302
-920 -725 -1119 -1134 -220 -454 -298 -751 -297 -1135 0 -307 41 -552 140
-830 73 -207 300 -617 458 -827 102 -137 205 -239 377 -376 387 -306 711 -488
1114 -626 126 -43 381 -112 453 -121 18 -3 44 -7 58 -10 26 -5 57 -9 155 -20
33 -4 70 -8 82 -10 32 -5 295 -17 378 -18 120 -1 402 14 500 27 28 3 71 8 97
11 48 5 100 12 153 21 17 3 41 7 55 9 41 6 182 35 225 47 22 6 45 12 50 14 60
13 291 91 380 129 17 7 50 21 75 31 225 91 592 295 740 411 8 6 62 48 120 94
123 95 337 307 434 429 256 321 431 700 515 1117 45 225 55 333 55 578 1 162
-8 336 -18 390 -2 11 -7 45 -10 75 -7 60 -12 90 -26 165 -5 28 -11 61 -14 75
-11 62 -42 188 -83 340 -25 91 -54 194 -64 230 -9 36 -33 117 -52 180 -19 63
-37 124 -40 135 -3 11 -53 178 -112 370 -58 193 -109 373 -112 401 -4 38 0 68
16 115 43 132 134 176 239 117 18 -10 86 -58 150 -106 105 -79 244 -180 426
-309 206 -145 350 -203 527 -208 87 -3 221 14 272 34 15 6 27 8 27 5 0 -4 6
-2 13 4 6 6 17 11 22 12 30 7 133 55 195 92 124 75 383 316 435 404 46 79 39
138 -32 278 -107 209 -144 296 -160 376 -43 218 -34 378 31 560 21 59 82 176
112 217 13 17 24 36 24 41 0 6 3 12 8 14 13 5 98 120 125 168 50 90 63 178 40
269 -8 31 -54 137 -103 236 -48 99 -104 223 -125 275 -20 52 -41 104 -46 115
-5 11 -31 81 -60 155 -63 166 -114 286 -175 410 -25 52 -64 133 -86 180 -22
47 -61 128 -85 180 -241 511 -454 1057 -581 1490 -43 146 -89 324 -97 380 -3
19 -10 58 -15 85 -5 28 -11 75 -15 105 -3 30 -7 73 -10 95 -5 42 -12 124 -20
240 -3 39 -7 88 -10 110 -2 22 -7 67 -10 100 -6 54 -31 145 -40 145 -3 0 -29
-9 -58 -20 -53 -20 -57 -24 -149 -163 -155 -232 -176 -280 -272 -619 -69 -246
-81 -295 -121 -513 -39 -207 -43 -226 -66 -300 -27 -87 -67 -169 -131 -262
-27 -40 -73 -122 -104 -183 -47 -94 -74 -136 -74 -116 0 3 -22 92 -49 198 -42
165 -100 428 -115 524 -6 36 -19 117 -21 124 -2 7 -16 106 -21 150 -5 36 -13
97 -19 140 -2 14 -6 54 -9 90 -4 36 -8 74 -10 85 -2 12 -7 72 -11 135 -7 102
-11 152 -14 171 -2 11 -54 30 -62 22 -4 -4 -84 -105 -179 -223 -94 -118 -175
-216 -179 -218 -13 -4 -201 411 -314 693 -119 297 -231 629 -287 855 -12 47
-25 99 -30 115 -10 31 -48 199 -56 245 -3 14 -7 33 -10 43 -3 10 -8 34 -10 54
-8 67 -16 68 -70 8z m-1879 -7660 c137 -8 232 -18 304 -30 13 -2 45 -7 70 -11
25 -4 55 -8 66 -10 11 -2 34 -7 50 -9 17 -3 37 -8 45 -10 8 -2 31 -7 50 -10
19 -3 53 -11 75 -16 22 -6 47 -12 55 -14 46 -9 159 -41 255 -72 746 -241 1315
-714 1569 -1306 27 -63 26 -63 -52 0 -280 227 -719 419 -1077 469 -27 3 -59 8
-70 10 -50 10 -192 18 -325 18 -135 0 -325 -10 -339 -18 -3 -2 -31 -7 -62 -10
-46 -5 -136 -26 -269 -60 -51 -14 -182 -64 -241 -92 -38 -19 -72 -34 -74 -34
-15 0 -169 -100 -230 -149 -156 -125 -250 -248 -310 -408 -39 -103 -50 -173
-49 -303 1 -121 21 -197 89 -335 113 -233 184 -311 357 -393 65 -32 205 -81
248 -88 14 -3 39 -9 55 -14 17 -4 46 -11 65 -14 19 -3 46 -8 60 -11 185 -39
393 -19 531 50 58 30 102 85 101 125 -3 105 -154 227 -387 310 -49 18 -103 37
-120 43 -16 6 -50 29 -73 51 -113 103 -152 302 -100 501 5 22 12 49 14 60 8
44 69 151 108 189 98 98 400 207 571 207 87 -1 90 -1 184 -26 78 -20 146 -53
227 -110 60 -43 160 -144 192 -194 9 -14 19 -28 22 -31 30 -29 109 -174 143
-267 66 -173 82 -324 64 -573 -31 -415 -183 -755 -453 -1010 -191 -181 -459
-302 -735 -335 -30 -3 -70 -8 -89 -10 -40 -5 -304 -5 -369 0 -215 16 -456 78
-623 160 -152 74 -314 204 -414 330 -21 28 -42 52 -46 53 -5 2 -8 8 -8 14 0 5
-14 29 -31 54 -95 139 -205 441 -244 672 -21 131 -23 140 -30 202 -3 30 -8 66
-10 80 -4 23 -9 87 -20 245 -6 79 -7 493 -1 570 5 71 17 193 21 215 1 8 6 35
10 60 14 94 16 106 26 150 6 25 12 54 15 64 33 165 136 416 237 580 81 132
208 282 303 356 139 109 175 128 260 138 78 9 246 8 409 -3z"/>
</g>
</svg>
